<svg width="30" height="24" viewBox="0 0 30 24" fill="none" xmlns="http://www.w3.org/2000/svg">
<rect width="30" height="24" fill="#F5F5F5"/>
<g clip-path="url(#clip0_0_1)">
<rect width="1920" height="4548.06" transform="translate(-352 -103)" fill="white"/>
<g clip-path="url(#clip1_0_1)">
<rect width="1920" height="767" transform="translate(-352 -103)" fill="#F8F9FA"/>
<g filter="url(#filter0_d_0_1)">
<rect x="-40" y="-31" width="1296" height="86" rx="40" fill="white" shape-rendering="crispEdges"/>
<path d="M7.65208 23.3192C6.69156 23.7504 4.83387 24.4366 3.88532 23.6147C3.2261 23.0436 3.26276 21.6034 3.30965 20.8162C3.45856 18.3243 4.87502 15.8665 6.37255 13.9349C8.1629 11.6263 10.8424 9.86462 13.7624 9.7661C15.979 9.69127 18.1627 10.581 19.8934 11.9677C21.6242 13.3545 22.9319 15.2112 23.9363 17.1884C24.4264 18.1532 24.8572 19.1845 24.8736 20.2665C24.8899 21.3485 24.4115 22.4958 23.4604 23.0119C22.6979 23.4257 21.7561 23.377 20.931 23.1089C20.1059 22.841 19.3624 22.3746 18.5984 21.9633C17.1892 21.2048 15.6256 20.6142 14.0283 20.7112C11.7189 20.8519 9.76294 22.3714 7.65208 23.3192Z" fill="#FF3366"/>
<path d="M5.46221 11.1424C5.74581 13.4798 3.97017 14.7513 2.15663 12.9942C1.04446 11.9167 0.178717 9.99985 0.0235771 8.45867C-0.0544918 7.68197 0.0405378 6.80426 0.62618 6.28821C1.18738 5.7936 2.06484 5.79086 2.73454 6.12434C3.40424 6.45781 3.89535 7.06715 4.2812 7.70816C4.90999 8.75299 5.3153 9.93176 5.46221 11.1424Z" fill="#FF3366"/>
<path d="M12.1677 4.8491C12.5413 6.4222 12.0976 8.85008 9.97228 8.67149C7.42818 8.45774 7.13261 4.06766 7.40772 2.25861C7.51074 1.58018 7.77437 0.82269 8.41414 0.574765C8.85462 0.403911 9.36768 0.535107 9.75653 0.803734C10.1451 1.07211 10.432 1.46146 10.6996 1.85081C11.3329 2.77342 11.909 3.76013 12.1677 4.8491Z" fill="#FF3366"/>
<path d="M21.0142 3.82031C21.0372 2.77798 20.8047 1.68377 20.1203 0.897339C19.4359 0.110913 18.2262 -0.268956 17.3023 0.214173C16.3433 0.715511 15.9904 1.89877 15.8322 2.96904C15.6172 4.42241 15.2703 7.09322 16.3318 8.31763C16.9963 9.0841 17.9927 8.68528 18.7547 8.24255C20.2495 7.37357 20.978 5.47647 21.0142 3.82031Z" fill="#FF3366"/>
<path d="M27.2735 13.3559C25.7768 14.7676 22.7174 14.3301 22.9875 11.895C23.1701 10.2478 24.2912 8.55077 25.3074 7.28695C25.9272 6.51624 26.8341 5.77196 27.7996 5.98671C28.5653 6.15707 29.0921 6.91282 29.226 7.68577C29.3597 8.45873 29.1769 9.2489 28.9691 10.0054C28.6331 11.2281 28.1962 12.4859 27.2735 13.3559Z" fill="#FF3366"/>
</g>
</g>
</g>
<defs>
<filter id="filter0_d_0_1" x="-52" y="-31" width="1320" height="114" filterUnits="userSpaceOnUse" color-interpolation-filters="sRGB">
<feFlood flood-opacity="0" result="BackgroundImageFix"/>
<feColorMatrix in="SourceAlpha" type="matrix" values="0 0 0 0 0 0 0 0 0 0 0 0 0 0 0 0 0 0 127 0" result="hardAlpha"/>
<feOffset dy="16"/>
<feGaussianBlur stdDeviation="6"/>
<feComposite in2="hardAlpha" operator="out"/>
<feColorMatrix type="matrix" values="0 0 0 0 0 0 0 0 0 0 0 0 0 0 0 0 0 0 0.03 0"/>
<feBlend mode="normal" in2="BackgroundImageFix" result="effect1_dropShadow_0_1"/>
<feBlend mode="normal" in="SourceGraphic" in2="effect1_dropShadow_0_1" result="shape"/>
</filter>
<clipPath id="clip0_0_1">
<rect width="1920" height="4548.06" fill="white" transform="translate(-352 -103)"/>
</clipPath>
<clipPath id="clip1_0_1">
<rect width="1920" height="767" fill="white" transform="translate(-352 -103)"/>
</clipPath>
</defs>
</svg>
